<svg
    xmlns="http://www.w3.org/2000/svg" data-name="Layer 1" viewBox="0 0 1024 1280" x="0px" y="0px">
    <title>icon-01</title>
    <path fill="#000000" d="M457.142857 684.068571v186.075429l96.768-96.804571a18.285714 18.285714 0 0 1 25.892572 25.892571l-128 128A18.285714 18.285714 0 0 1 420.571429 914.285714v-256a18.285714 18.285714 0 0 1 4.498285-11.995428l251.794286-289.865143a18.285714 18.285714 0 0 1 27.611429 23.990857l-233.910858 269.238857 337.005715 77.750857 83.236571-582.582857L158.354286 577.609143l162.157714 37.412571a18.285714 18.285714 0 0 1-8.228571 35.657143l-206.701715-47.725714a18.285714 18.285714 0 0 1-5.193143-33.536l804.571429-475.428572a18.285714 18.285714 0 0 1 27.392 18.285715l-91.428571 640a18.285714 18.285714 0 0 1-22.198858 15.250285L457.142857 684.068571z"/>
</svg>